<svg id="SvgjsSvg1036" xmlns="http://www.w3.org/2000/svg" version="1.1" xmlns:xlink="http://www.w3.org/1999/xlink" xmlns:svgjs="http://svgjs.com/svgjs" width="418" height="418" viewBox="0 0 418 418"><title>Rectangle 6</title><desc>Created with Avocode.</desc><defs id="SvgjsDefs1037"><clipPath id="SvgjsClipPath1040"><path id="SvgjsPath1039" d="M457 468V368H458V468Z " fill="#ffffff"></path></clipPath><clipPath id="SvgjsClipPath1043"><path id="SvgjsPath1042" d="M457 368V367H557V368Z " fill="#ffffff"></path></clipPath><clipPath id="SvgjsClipPath1046"><path id="SvgjsPath1045" d="M874 468V368H875V468Z " fill="#ffffff"></path></clipPath><clipPath id="SvgjsClipPath1049"><path id="SvgjsPath1048" d="M775 368V367H875V368Z " fill="#ffffff"></path></clipPath><clipPath id="SvgjsClipPath1052"><path id="SvgjsPath1051" d="M457 784V684H458V784Z " fill="#ffffff"></path></clipPath><clipPath id="SvgjsClipPath1055"><path id="SvgjsPath1054" d="M457 785V784H557V785Z " fill="#ffffff"></path></clipPath><clipPath id="SvgjsClipPath1058"><path id="SvgjsPath1057" d="M874 784V684H875V784Z " fill="#ffffff"></path></clipPath><clipPath id="SvgjsClipPath1061"><path id="SvgjsPath1060" d="M775 785V784H875V785Z " fill="#ffffff"></path></clipPath></defs><path id="SvgjsPath1038" d="M457 468V368H458V468Z " fill-opacity="0" fill="#ffffff" stroke-dashoffset="0" stroke-linejoin="miter" stroke-linecap="butt" stroke-opacity="1" stroke="#ffcc00" stroke-miterlimit="50" stroke-width="8" clip-path="url(&quot;#SvgjsClipPath1040&quot;)" transform="matrix(1,0,0,1,-457,-367)"></path><path id="SvgjsPath1041" d="M457 368V367H557V368Z " fill-opacity="0" fill="#ffffff" stroke-dashoffset="0" stroke-linejoin="miter" stroke-linecap="butt" stroke-opacity="1" stroke="#ffcc00" stroke-miterlimit="50" stroke-width="8" clip-path="url(&quot;#SvgjsClipPath1043&quot;)" transform="matrix(1,0,0,1,-457,-367)"></path><path id="SvgjsPath1044" d="M874 468V368H875V468Z " fill-opacity="0" fill="#ffffff" stroke-dashoffset="0" stroke-linejoin="miter" stroke-linecap="butt" stroke-opacity="1" stroke="#ffcc00" stroke-miterlimit="50" stroke-width="8" clip-path="url(&quot;#SvgjsClipPath1046&quot;)" transform="matrix(1,0,0,1,-457,-367)"></path><path id="SvgjsPath1047" d="M775 368V367H875V368Z " fill-opacity="0" fill="#ffffff" stroke-dashoffset="0" stroke-linejoin="miter" stroke-linecap="butt" stroke-opacity="1" stroke="#ffcc00" stroke-miterlimit="50" stroke-width="8" clip-path="url(&quot;#SvgjsClipPath1049&quot;)" transform="matrix(1,0,0,1,-457,-367)"></path><path id="SvgjsPath1050" d="M457 784V684H458V784Z " fill-opacity="0" fill="#ffffff" stroke-dashoffset="0" stroke-linejoin="miter" stroke-linecap="butt" stroke-opacity="1" stroke="#ffcc00" stroke-miterlimit="50" stroke-width="8" clip-path="url(&quot;#SvgjsClipPath1052&quot;)" transform="matrix(1,0,0,1,-457,-367)"></path><path id="SvgjsPath1053" d="M457 785V784H557V785Z " fill-opacity="0" fill="#ffffff" stroke-dashoffset="0" stroke-linejoin="miter" stroke-linecap="butt" stroke-opacity="1" stroke="#ffcc00" stroke-miterlimit="50" stroke-width="8" clip-path="url(&quot;#SvgjsClipPath1055&quot;)" transform="matrix(1,0,0,1,-457,-367)"></path><path id="SvgjsPath1056" d="M874 784V684H875V784Z " fill-opacity="0" fill="#ffffff" stroke-dashoffset="0" stroke-linejoin="miter" stroke-linecap="butt" stroke-opacity="1" stroke="#ffcc00" stroke-miterlimit="50" stroke-width="8" clip-path="url(&quot;#SvgjsClipPath1058&quot;)" transform="matrix(1,0,0,1,-457,-367)"></path><path id="SvgjsPath1059" d="M775 785V784H875V785Z " fill-opacity="0" fill="#ffffff" stroke-dashoffset="0" stroke-linejoin="miter" stroke-linecap="butt" stroke-opacity="1" stroke="#ffcc00" stroke-miterlimit="50" stroke-width="8" clip-path="url(&quot;#SvgjsClipPath1061&quot;)" transform="matrix(1,0,0,1,-457,-367)"></path></svg>